<svg id="Layer_1" data-name="Layer 1" xmlns="http://www.w3.org/2000/svg" viewBox="0 0 39.87 39.8"><path d="M40.07,5.86C40.07,2.58,38,.4,34.75.39Q20.2.33,5.64.38C2.3.4.24,2.56.24,5.9c0,9.55,0,19.1,0,28.64A5.38,5.38,0,0,0,5.8,40.16c4.75-.11,9.51,0,14.26,0h14.5a5.13,5.13,0,0,0,5.51-5.51Q40.08,20.24,40.07,5.86ZM24.24,29.39a3.22,3.22,0,0,0-2.18-2.46c-2.35-1.09-4.67-2.24-7-3.4a1.64,1.64,0,0,0-1.66-.05,4.58,4.58,0,1,1,.24-8.12,1.25,1.25,0,0,0,1.34.05q4.09-2,8.23-4A1.21,1.21,0,0,0,24,10.22a4.44,4.44,0,0,1,3.49-4.06,4.59,4.59,0,0,1,5,2.08,4.51,4.51,0,0,1-.41,5.35,4.46,4.46,0,0,1-5.3,1.26,1.85,1.85,0,0,0-1.86,0c-2.63,1.33-5.29,2.59-7.93,3.89-.34.16-.66.36-1.29.71l1.22.62c2.64,1.29,5.29,2.57,7.92,3.89a1.6,1.6,0,0,0,1.66,0,4.52,4.52,0,0,1,6.3,2.31,4.6,4.6,0,0,1-2.66,6.1A4.43,4.43,0,0,1,24.24,29.39Z" transform="translate(-0.21 -0.36)"/></svg>