<?xml version="1.0" encoding="utf-8"?>
<!-- Generator: Adobe Illustrator 23.1.1, SVG Export Plug-In . SVG Version: 6.00 Build 0)  -->
<svg version="1.1" id="Layer_1" xmlns="http://www.w3.org/2000/svg" xmlns:xlink="http://www.w3.org/1999/xlink" x="0px" y="0px"
	 width="50px" height="50px" viewBox="0 0 50 50" style="enable-background:new 0 0 50 50;" xml:space="preserve">
<g>
	<path d="M26.6,12.4c-0.4-0.4-0.8-0.8-1.2-1.3c-0.1,0.1-0.2,0.2-0.2,0.2c-6,6-12.1,12-18.1,18c-0.1,0.1-0.2,0.3-0.2,0.5
		c0,5.9,0,11.8,0,17.8c0,1.1,0.6,1.7,1.7,1.7c3.2,0,6.3,0,9.5,0h0.4v-0.4c0-5.1,0-10.1,0-15.2c0-0.9,0.5-1.4,1.4-1.4
		c3.7,0,7.4,0,11,0c0.3,0,0.5,0.1,0.7,0.2c0.5,0.3,0.7,0.7,0.7,1.3c0,5.1,0,10.1,0,15.2v0.4c0.1,0,0.1,0,0.1,0c3.3,0,6.6,0,9.9,0
		c0.5,0,1-0.2,1.2-0.7c0.1-0.3,0.2-0.7,0.2-1c0-5.9,0-11.8,0-17.6c0-0.2-0.1-0.4-0.2-0.6C37.9,23.6,32.2,18,26.6,12.4z"/>
	<path d="M48.4,22.4c-0.7-0.7-1.3-1.5-2-2.2c-6-6-12-12-18-18.1c-1.6-1.6-4.4-1.6-6.1,0C17.5,7,12.8,11.7,8,16.4c-2,2-4,4.1-6,6.2
		c-0.2,0.2-0.4,0.5-0.5,0.8c-0.8,1.9,0,4.3,1.9,5.3c0.2,0.1,0.4,0.1,0.6-0.1c6.8-6.7,13.5-13.4,20.3-20.1c0.8-0.7,1.4-0.7,2.2,0
		c5.7,5.7,11.5,11.5,17.2,17.2c1.1,1.1,2.1,2.1,3.2,3.2c1.2-0.5,1.9-1.4,2.3-2.6C49.6,24.9,49.5,23.6,48.4,22.4z"/>
	<rect x="21.2" y="34.8" width="8.6" height="14.4"/>
	<path d="M43.5,13.6c0.1,0.1,0.1,0.1,0.2,0.2c0-0.1,0-0.1,0-0.1c0-2.8,0-5.6,0-8.4c0-0.8-0.6-1.4-1.4-1.4c-1.9,0-3.8,0-5.7,0
		c-0.7,0-1.2,0.4-1.4,1c-0.1,0.2,0,0.4,0.1,0.6C38.1,8.1,40.8,10.9,43.5,13.6z"/>
</g>
</svg>
