<?xml version="1.0" encoding="utf-8"?>
<!-- Generator: Adobe Illustrator 24.3.0, SVG Export Plug-In . SVG Version: 6.00 Build 0)  -->
<svg version="1.1" id="Layer_1" xmlns="http://www.w3.org/2000/svg" xmlns:xlink="http://www.w3.org/1999/xlink" x="0px" y="0px"
	 viewBox="0 0 39.9 40" style="enable-background:new 0 0 39.9 40;" xml:space="preserve">
<path d="M39.9,10.6C39.9,10.6,39.9,10.6,39.9,10.6c0-1.7,0-3.3,0-5c0-3.3-2.1-5.5-5.3-5.5c-9.7,0-19.4,0-29.1,0C2.1,0.1,0,2.3,0,5.6
	c0,0.9,0,1.8,0,2.7c0,0,0,0,0,0c0,1.1,0,2.2,0,3.4c0,7.5,0,15,0,22.6c0,3,2.1,5.7,5.6,5.6c0.1,0,0.2,0,0.2,0c0,0,0.1,0,0.1,0.1
	c0.8,0,1.7,0,2.5,0c0.2,0,0.4,0,0.6,0c0.6,0,1.2,0,1.9,0c0,0,0,0,0,0c3.1,0,6.1,0,9.2,0h1.1l0-15.2H16v-6.1h5.3c0-1.7,0-3.3,0-4.9
	c0-2.6,0.8-4.9,3.3-6.3c2.9-1.5,6-1.4,9.2-0.9v5.3c-0.1,0.1-0.1,0.1-0.2,0.1c-1.1,0-2.3,0-3.4,0.1c-1.2,0-2.3,0.7-2.4,1.8
	c-0.2,1.6,0,3.3,0,5h5.9c-0.2,1.8-0.5,3.4-0.6,5.1c-0.1,0.8-0.4,1-1.1,1c-1.4,0-2.7,0-4.1,0l0,15.2c2.6,0,4.1-0.1,6.7-0.1
	c3.4,0,5.5-2.1,5.5-5.5c0,0,0,0,0,0C39.9,26.4,39.9,18.5,39.9,10.6z"/>
</svg>
