<svg id="Layer_1" data-name="Layer 1" xmlns="http://www.w3.org/2000/svg" viewBox="0 0 103.68 85.9"><path d="M27.08,17.45q36-.06,71.91,0c3.33,0,5.2-1.93,5.22-5.28S102.41,6.93,99,6.92h-36c-12.07,0-24.14,0-36.21,0a5.41,5.41,0,0,0-3.39,1c-1.9,1.72-2.13,4-1.26,6.43S24.71,17.46,27.08,17.45Z" transform="translate(-0.62 -0.72)"/><path d="M26.86,41.46c-3.26,0-5.13,2-5.08,5.41s1.79,5.08,5,5.08H99c3.41,0,5.22-1.81,5.22-5.17s-1.88-5.32-5.19-5.32Z" transform="translate(-0.62 -0.72)"/><path d="M98.74,76.29h-36c-12,0-24,0-36,0-2.29,0-3.81.75-4.6,3-1.48,4.12.71,7.38,5.06,7.38H78c7.08,0,14.16,0,21.24,0,1.78,0,3.26-.34,4.21-2.05C105.69,80.49,103.36,76.29,98.74,76.29Z" transform="translate(-0.62 -0.72)"/><path d="M6.52,48.55l2.52-3a25.78,25.78,0,0,0,2.21-2.7,5,5,0,0,0-.09-6.05C10,35.19,6.21,34.42,4,35.41a4.77,4.77,0,0,0-3.05,5c1.68,0,3.55,1.08,4.26-1.6.1-.37,1.57-.8,2.07-.54a2.31,2.31,0,0,1,.88,2,7.46,7.46,0,0,1-1.52,2.8C5.38,44.67,3.89,46,2.69,47.63A28.53,28.53,0,0,0,.62,51.71c3.88,0,6.78,0,9.69,0,2.64,0,2.77-.21,1.92-3.15Z" transform="translate(-0.62 -0.72)"/><path d="M10.29,77.92c2.24-2.52,2.57-4,1.37-5.94s-4.68-3-7.41-2c-1.82.66-3.46,1.68-3.06,4.77C2.71,74.1,4,73.5,5.37,73.08a2.85,2.85,0,0,1,2.07,0,2.15,2.15,0,0,1,.84,1.83c-.11.55-.87,1.11-1.48,1.4a8.59,8.59,0,0,1-2.2.42v2.5A8,8,0,0,1,7,79.62c.63.33,1.4,1,1.49,1.61a2.27,2.27,0,0,1-.94,2c-.68.28-2.08.18-2.4-.28C3.85,81.08,2.36,81.78.82,82c.38,3,1.49,4,4.48,4.51s5.83-.67,6.87-2.85C13.14,81.61,12.53,79.77,10.29,77.92Z" transform="translate(-0.62 -0.72)"/><path d="M4.59,17.34H8.3V.72L1.23,1.4V4.22l3.36.17Z" transform="translate(-0.62 -0.72)"/></svg>