<svg id="Layer_1" data-name="Layer 1" xmlns="http://www.w3.org/2000/svg" viewBox="0 0 39.87 39.8"><g id="vr6rs5.tif"><path d="M20.07,40c-4.75,0-9.51-.09-14.26,0A5.38,5.38,0,0,1,.22,34.44c.07-9.55,0-19.1,0-28.64C.25,2.46,2.31.29,5.66.28q14.55,0,29.1,0c3.26,0,5.32,2.2,5.32,5.48q0,14.37,0,28.76A5.15,5.15,0,0,1,34.57,40ZM34.91,33.9c.07-.12.14-.19.14-.25,0-4,.21-8.07-.12-12.07-.41-4.9-4.47-7.54-9.09-6.17a17.56,17.56,0,0,0-3.25,1.75l-.1-1.76c-1.87,0-3.63,0-5.38,0-.89,0-1.19.22-1.18,1.15,0,5.45,0,10.89,0,16.33,0,.33.05.67.08,1h6.53c0-3.58,0-7.07,0-10.55a3.23,3.23,0,0,1,3.11-3.41c1.84,0,2.9,1.21,2.9,3.36,0,3.14,0,6.28,0,9.43,0,.4,0,.8.05,1.2Zm-21.81,0V15.49H6.79V33.93ZM9.92,13.49a3.38,3.38,0,0,0,3.45-3.39A3.5,3.5,0,0,0,10,6.62a3.55,3.55,0,0,0-3.47,3.44A3.42,3.42,0,0,0,9.92,13.49Z" transform="translate(-0.22 -0.25)"/></g></svg>