<svg xmlns="http://www.w3.org/2000/svg" width="14.963" height="14.963" viewBox="0 0 14.963 14.963"><title>Icon_panel_expand_RAJA</title><path d="M22.619,9.92H10.79a1.572,1.572,0,0,0-1.567,1.568V23.316a1.572,1.572,0,0,0,1.567,1.568H22.619a1.572,1.572,0,0,0,1.567-1.568V11.488A1.572,1.572,0,0,0,22.619,9.92Zm-.1,11.729a1.572,1.572,0,0,1-1.568,1.567H12.458a1.572,1.572,0,0,1-1.568-1.567V13.155a1.572,1.572,0,0,1,1.568-1.567h8.493a1.572,1.572,0,0,1,1.568,1.567Z" transform="translate(-9.223 -9.92)"/></svg>