<svg id="Layer_1" data-name="Layer 1" xmlns="http://www.w3.org/2000/svg" viewBox="0 0 103.79 79.8"><g id="VHIuaX"><path d="M99,6.92h-36c-12.07,0-24.14,0-36.21,0a5.41,5.41,0,0,0-3.39,1c-1.9,1.72-2.13,4-1.26,6.43s2.5,3.05,4.87,3q36-.06,71.91,0c3.33,0,5.2-1.93,5.22-5.28S102.41,6.93,99,6.92Z" transform="translate(-0.5 -6.85)"/><path d="M26.86,41.46c-3.26,0-5.13,2-5.08,5.41s1.79,5.08,5,5.08H99c3.41,0,5.22-1.81,5.22-5.17s-1.88-5.32-5.19-5.32Z" transform="translate(-0.5 -6.85)"/><path d="M98.74,76.29h-36c-12,0-24,0-36,0-2.29,0-3.81.75-4.6,3-1.48,4.12.71,7.38,5.06,7.38H78c7.08,0,14.16,0,21.24,0,1.78,0,3.26-.34,4.21-2.05C105.69,80.49,103.36,76.29,98.74,76.29Z" transform="translate(-0.5 -6.85)"/><polygon points="10.9 10.49 10.9 0 0 0 0 10.51 10.9 10.49"/><polygon points="11.01 34.8 0.11 34.8 0.11 45.3 11.01 45.29 11.01 34.8"/><polygon points="11.01 69.3 0.11 69.3 0.11 79.8 11.01 79.79 11.01 69.3"/></g></svg>