<?xml version="1.0" encoding="utf-8"?>
<!-- Generator: Adobe Illustrator 23.1.1, SVG Export Plug-In . SVG Version: 6.00 Build 0)  -->
<svg version="1.1" id="Layer_1" xmlns="http://www.w3.org/2000/svg" xmlns:xlink="http://www.w3.org/1999/xlink" x="0px" y="0px"
	 width="50px" height="50px" viewBox="0 0 50 50" style="enable-background:new 0 0 50 50;" xml:space="preserve">
<path d="M24.9,4.4c-11,0-20,9-20,20c0,11,9,20,20,20s20-9,20-20C44.9,13.3,36,4.4,24.9,4.4z M24.9,43c-5.9,0-11.4-2.7-15.1-7.4
	l-0.3-0.4l0.2-0.4c2.4-4.9,6.5-7.4,10.3-9.1l-0.2-0.2c-0.6-0.7-1.2-1.3-1.8-2c-2.8-3-3.6-7.4-2-11.2c1.7-4.1,4.7-6.3,8.8-6.3L25,6
	c4,0,7.1,2.1,8.8,6c1.7,3.9,1.1,7.8-1.6,11.2c-0.6,0.8-1.3,1.4-2,2.1c-0.1,0.1-0.2,0.1-0.2,0.2c0.4,0.2,0.8,0.5,1.2,0.7
	c1.5,0.8,3,1.6,4.4,2.6c1.9,1.3,3.6,3.2,5,5.7l0.2,0.4l-0.3,0.4C36.7,40.2,31,43,24.9,43z"/>
</svg>
