<?xml version="1.0" encoding="utf-8"?>
<!-- Generator: Adobe Illustrator 23.1.1, SVG Export Plug-In . SVG Version: 6.00 Build 0)  -->
<svg version="1.1" id="Layer_1" xmlns="http://www.w3.org/2000/svg" xmlns:xlink="http://www.w3.org/1999/xlink" x="0px" y="0px"
	 width="50px" height="50px" viewBox="0 0 50 50" style="enable-background:new 0 0 50 50;" xml:space="preserve">
<g>
	<path d="M21.7,24.1c-2.3,2.1-3.1,4.6-3.5,7.6c1.8-0.6,4-0.6,5.2-1.7c4.4-4,8.4-8.3,12.6-12.5c-1.2-1.2-2.4-2.4-3.9-3.9
		C28.6,17.1,25.3,20.8,21.7,24.1z"/>
	<path d="M39.4,12.4c-0.2-1.1-1-1.9-2.2-2.1c-1.7-0.3-2.6,0.9-3.5,1.9c1.2,1.3,2.4,2.5,3.7,3.8C38.4,15,39.8,14.1,39.4,12.4z"/>
	<path d="M33.3,22.3v14.9H12.5V16.3h14.4c0.3-0.6,0.7-1.2,1.1-1.8c0.1-0.2,0.2-0.3,0.2-0.5c0,0,0-0.1,0.1-0.1H10.1v25.6h25.6V20.6
		C35,21.3,34.2,21.9,33.3,22.3z"/>
</g>
</svg>
