<?xml version="1.0" encoding="UTF-8"?><svg id="Layer_1" xmlns="http://www.w3.org/2000/svg" width="50" height="49.96" viewBox="0 0 50 49.96"><g id="Zw48zT.tif"><path d="M17.65,22.6c5.58,.6,13.06-3.82,14.31-8.46-.34-.21-.69-.41-1.02-.64-2.82-1.94-3.94-5.54-2.72-8.71C29.44,1.61,32.7-.37,35.98,.06c3.54,.47,6.18,3.12,6.55,6.58,.39,3.64-1.99,7.06-5.56,7.94-.5,.12-.75,.32-.94,.8-.91,2.27-2.48,4.05-4.35,5.57-.7,.56-1.44,1.07-2.2,1.64,.15,.02,.26,.04,.38,.04,1.75,0,3.5,0,5.24,0,.33,0,.47-.1,.6-.41,1.27-3.15,4.32-4.95,7.79-4.61,3.11,.31,5.79,2.84,6.39,6.03,.68,3.66-1.56,7.34-5.13,8.41-3.66,1.1-7.52-.69-8.98-4.2-.18-.43-.4-.56-.85-.55-1.63,.03-3.27,.01-4.9,.01-.16,0-.32,0-.62,0,.24,.18,.38,.28,.52,.37,2.01,1.35,3.82,2.92,5.13,4.98,.43,.69,.77,1.43,1.1,2.18,.12,.28,.27,.39,.55,.45,3.44,.74,5.85,3.72,5.86,7.19,.01,3.51-2.36,6.49-5.76,7.27-3.56,.82-7.21-1.11-8.55-4.51-1.34-3.41,.02-7.28,3.19-9.12,.17-.1,.34-.19,.56-.32-.1-.24-.19-.48-.3-.71-1.31-2.53-3.36-4.34-5.74-5.82-2.45-1.53-5.11-2.17-7.99-1.98-.35,.02-.38,.22-.46,.45-1.07,3.01-3.12,5.03-6.21,5.87-4.89,1.34-9.89-1.68-11.07-6.62-1.16-4.86,1.98-9.78,6.9-10.83,4.38-.93,8.84,1.59,10.31,5.83,.07,.2,.14,.4,.2,.59Zm29.22,2.36c0-2.36-1.92-4.29-4.26-4.28-2.41,0-4.35,1.93-4.33,4.31,.01,2.39,1.95,4.29,4.37,4.28,2.32,0,4.24-1.96,4.23-4.32Zm-16,17.57c-.01,2.37,1.88,4.29,4.22,4.3,2.44,.01,4.34-1.85,4.36-4.27,.02-2.37-1.9-4.3-4.28-4.32-2.37-.02-4.29,1.9-4.3,4.28Zm0-35.09c.01,2.37,1.96,4.3,4.31,4.27,2.39-.03,4.28-1.95,4.27-4.33-.02-2.39-1.92-4.27-4.32-4.26-2.39,0-4.27,1.92-4.26,4.31Z"/></g></svg>