<svg id="Layer_1" data-name="Layer 1" xmlns="http://www.w3.org/2000/svg" viewBox="0 0 39.87 39.9"><path d="M39.86,5.44C39.86,2.16,37.79,0,34.53,0Q20-.09,5.43,0C2.09,0,0,2.14,0,5.48,0,15,.06,24.57,0,34.12a5.37,5.37,0,0,0,5.58,5.62l2.06,0a10.18,10.18,0,0,0,1.38.1c3.53,0,7.06,0,10.59,0h0c3.68,0,7.37,0,11.05,0a9.87,9.87,0,0,0,1.23-.1h2.45a5.14,5.14,0,0,0,5.52-5.51Q39.88,19.81,39.86,5.44Zm-32,17.38,2.39-.2c-2.58-1.31-4.4-3-4.46-6.17l2.07.62C5.61,14.58,5.29,11.89,6.5,8.72a19,19,0,0,0,12.71,6.64c0-.44,0-.84,0-1.24a6,6,0,0,1,3.51-5.86A5.86,5.86,0,0,1,29.38,9,1.52,1.52,0,0,0,31,9.36c.89-.33,1.78-.69,2.67-1l.26.2c-.72.94-1.43,1.89-2.26,3l3-.83.18.14a32.07,32.07,0,0,0-2.27,2.4A3.21,3.21,0,0,0,31.78,15,18.25,18.25,0,0,1,17.45,32C13.71,32.82,8,31.79,5,29.82a30.87,30.87,0,0,0,4.37-.72,19.47,19.47,0,0,0,4.08-2A7.21,7.21,0,0,1,7.84,22.82Z" transform="translate(0 0.07)"/></svg>