<svg id="Layer_1" data-name="Layer 1" xmlns="http://www.w3.org/2000/svg" viewBox="0 0 89.78 85.6"><path d="M40.67,60.77a6.24,6.24,0,0,0-7.53,1.5c-2.81,3-5.44,6.08-8.22,9.07-2.18,2.33-4.36,2.46-6.83.52a29.18,29.18,0,0,1-2.44-2.14c-2.27-2.22-2.5-4.22-.43-6.57,6.11-6.93,12.32-13.78,18.5-20.65a4.38,4.38,0,0,1,5-1.37,15.72,15.72,0,0,0,2.41.6c3.35.48,6.71-1.46,7.61-4.34a6.21,6.21,0,0,0-3.45-7.94,58.94,58.94,0,0,0-8-2.38A18.17,18.17,0,0,0,24,33.19C17.54,40.34,11,47.47,4.69,54.76a17.12,17.12,0,0,0,.74,23.73,38.23,38.23,0,0,0,6.09,5.13,17.65,17.65,0,0,0,22.6-2.49c3.06-3.17,6-6.47,8.83-9.85a8.47,8.47,0,0,0,1.79-4C45.15,64.6,43.35,62,40.67,60.77Z" transform="translate(-0.27 -1.01)"/><path d="M84.88,8.93c-1.4-1.41-3-2.67-4.48-4C74-.63,62.09-.52,55.77,6.75c-2.68,3.07-5.51,6-8.2,9.09-2.94,3.36-2.85,6.76.13,9.46,3.18,2.88,6.82,2.72,9.89-.54,2.46-2.61,4.8-5.32,7.22-8,3.18-3.46,5.11-3.38,9.23.35,3.13,2.83,3.23,4.75.29,8.05-5,5.59-10.13,11.05-15,16.76-2.78,3.27-5.53,5.82-10.15,3.67a2.93,2.93,0,0,0-1-.12,6.63,6.63,0,0,0-6.71,4.89,6.16,6.16,0,0,0,3.28,7.34A75.68,75.68,0,0,0,53,60.33c5.12-.33,9.45-2,12.77-5.57,7-7.49,13.91-15,20.5-22.86C91.9,25.17,91.1,15.19,84.88,8.93Z" transform="translate(-0.27 -1.01)"/></svg>