<?xml version="1.0" encoding="utf-8"?>
<!-- Generator: Adobe Illustrator 23.1.1, SVG Export Plug-In . SVG Version: 6.00 Build 0)  -->
<svg version="1.1" id="Layer_1" xmlns="http://www.w3.org/2000/svg" xmlns:xlink="http://www.w3.org/1999/xlink" x="0px" y="0px"
	 width="50px" height="50px" viewBox="0 0 50 50" style="enable-background:new 0 0 50 50;" xml:space="preserve">
<g>
	<path d="M38.9,16c-0.4,0-0.8-0.1-1.2-0.1c0-0.2,0-0.4,0-0.5c0-1.7-0.2-1.9-1.9-1.9c-1.5,0-2.9,0-4.5,0c0-0.3,0-0.5,0-0.8
		c-0.1-2.6-2.2-4.5-4.6-4.4c-1.3,0.1-2.6,0.1-3.8,0c-1.4-0.1-3.7,1.5-4,3.1c-0.1,0.7-0.2,1.3-0.4,2.2c-1.6,0-3.2,0-4.9,0
		c-1,0-1.3,0.3-1.3,1.3c0,1.1,0,1.1-1.1,1.2c0,0-0.1,0-0.2,0.1v2.3c0.7,0,1.2,0.1,1.8,0.1c0.7-0.1,0.8,0.2,0.8,0.8
		c0,6.1,0.1,12.3,0,18.4c0,1.8,2,3.7,3.6,3.7c5.2,0,10.5,0,15.7,0c1.8,0,3.6-2,3.6-3.7c-0.1-6.1,0-12.2,0-18.4c0-0.3,0-0.6,0-0.9
		h2.6V16z M23,10.8c1.2,0,2.4,0.1,3.5,0c1.5-0.1,2.5,1.2,2.1,2.6h-7.3C20.9,12,21.7,10.8,23,10.8z M33.9,37.2c0,1.3-0.4,1.7-1.7,1.7
		c-4.9,0-9.8,0-14.7,0c-1,0-1.5-0.4-1.5-1.4c0-6.2,0-12.5,0-18.7c0-0.1,0-0.1,0.1-0.3c0.3,0,0.5,0,0.8,0c5.4,0,10.9,0,16.3,0
		c0.7,0,0.9,0.2,0.8,0.9C33.9,25.3,33.9,31.3,33.9,37.2z"/>
	<rect x="18.7" y="21" width="2.4" height="15.2"/>
	<rect x="23.7" y="21" width="2.4" height="15.2"/>
	<rect x="28.9" y="21" width="2.3" height="15.2"/>
</g>
</svg>
